<svg xmlns="http://www.w3.org/2000/svg" viewBox="0 0 640 360" width="640" height="360" role="img" aria-label="Placeholder project photo: Drywall &amp; Paint, shot 01 (wide shot), paint roller line drawing"><defs><linearGradient id="bg-drywall01" x1="0" y1="0" x2="0" y2="1"><stop offset="0" stop-color="#22252D"/><stop offset="1" stop-color="#121419"/></linearGradient><filter id="gr-drywall01" x="0" y="0" width="100%" height="100%"><feTurbulence type="fractalNoise" baseFrequency=".85" numOctaves="2" seed="21" stitchTiles="stitch"/><feColorMatrix values="0 0 0 0 1 0 0 0 0 1 0 0 0 0 1 0 0 0 0.06 0"/></filter><linearGradient id="st-drywall01" x1="0" y1="0" x2="0" y2="1"><stop offset="0" stop-color="#22252D" stop-opacity="0.85"/><stop offset="1" stop-color="#22252D" stop-opacity="0"/></linearGradient><linearGradient id="sb-drywall01" x1="0" y1="0" x2="0" y2="1"><stop offset="0" stop-color="#121419" stop-opacity="0"/><stop offset="1" stop-color="#121419" stop-opacity="0.9"/></linearGradient></defs><rect width="640" height="360" fill="url(#bg-drywall01)"/><path d="M40 0V360M80 0V360M120 0V360M160 0V360M200 0V360M240 0V360M280 0V360M320 0V360M360 0V360M400 0V360M440 0V360M480 0V360M520 0V360M560 0V360M600 0V360M0 40H640M0 80H640M0 120H640M0 160H640M0 200H640M0 240H640M0 280H640M0 320H640" fill="none" stroke="#fff" opacity="0.05"/><rect width="640" height="360" filter="url(#gr-drywall01)"/><g transform="translate(320 174) scale(0.5)"><g fill="none" stroke="#D5D9E0" stroke-width="7.8" stroke-linecap="round" stroke-linejoin="round"><path d="M-62 -60V-94Q-48 -106 -34 -96T-6 -96T22 -96T50 -96V-60M-60 -52H40Q54 -52 54 -38V-18Q54 -4 40 -4H-60Q-74 -4 -74 -18V-38Q-74 -52 -60 -52ZM38 -47V-9M54 -28H62Q72 -28 72 -18V8Q72 18 62 18H0Q-10 18 -10 28V38M-16 46V38H-4V46M-10 46Q0 46 0 56V90Q0 100 -10 100Q-20 100 -20 90V56Q-20 46 -10 46Z" transform="translate(1 2)"/></g></g><path d="M238 116V102H252M388 102H402V116M402 232V246H388M252 246H238V232" fill="none" stroke="#6E7482" stroke-width="1.5" opacity=".9"/><path d="M40 246H600" stroke="#6E7482" stroke-dasharray="1 5" opacity=".6"/><rect width="640" height="64" fill="url(#st-drywall01)"/><rect y="268" width="640" height="92" fill="url(#sb-drywall01)"/><path d="M10 26V10H26M614 10H630V26M630 334V350H614M26 350H10V334" fill="none" stroke="#6E7482" stroke-width="2"/><text x="624" y="344" text-anchor="end" font-family="'IBM Plex Mono', ui-monospace, monospace" font-size="11" letter-spacing="2" fill="#5E6472">PLACEHOLDER PHOTO</text></svg>