<svg xmlns="http://www.w3.org/2000/svg" viewBox="0 0 640 360" width="640" height="360" role="img" aria-label="Placeholder project photo: Framing &amp; Carpentry, shot 02 (before), stud wall and framing square line drawing"><defs><linearGradient id="bg-framing02" x1="0" y1="0" x2="0" y2="1"><stop offset="0" stop-color="#22252D"/><stop offset="1" stop-color="#121419"/></linearGradient><filter id="gr-framing02" x="0" y="0" width="100%" height="100%"><feTurbulence type="fractalNoise" baseFrequency=".85" numOctaves="2" seed="7505" stitchTiles="stitch"/><feColorMatrix values="0 0 0 0 1 0 0 0 0 1 0 0 0 0 1 0 0 0 0.06 0"/></filter><linearGradient id="st-framing02" x1="0" y1="0" x2="0" y2="1"><stop offset="0" stop-color="#22252D" stop-opacity="0.85"/><stop offset="1" stop-color="#22252D" stop-opacity="0"/></linearGradient><linearGradient id="sb-framing02" x1="0" y1="0" x2="0" y2="1"><stop offset="0" stop-color="#121419" stop-opacity="0"/><stop offset="1" stop-color="#121419" stop-opacity="0.9"/></linearGradient><mask id="ko-framing02" maskUnits="userSpaceOnUse" x="-150" y="-150" width="300" height="300"><rect x="-150" y="-150" width="300" height="300" fill="#fff"/><path d="M0 0H-112V-16H-14V-96H0Z" transform="translate(62 100) rotate(8)" fill="#000" stroke="#000" stroke-width="18.6" stroke-linejoin="round"/></mask></defs><rect width="640" height="360" fill="url(#bg-framing02)"/><path d="M40 0V360M80 0V360M120 0V360M160 0V360M200 0V360M240 0V360M280 0V360M320 0V360M360 0V360M400 0V360M440 0V360M480 0V360M520 0V360M560 0V360M600 0V360M0 40H640M0 80H640M0 120H640M0 160H640M0 200H640M0 240H640M0 280H640M0 320H640" fill="none" stroke="#fff" opacity="0.05"/><rect width="640" height="360" filter="url(#gr-framing02)"/><g transform="translate(204 178) rotate(-3) scale(0.9)"><g fill="none" stroke="#D5D9E0" stroke-width="5.8" stroke-linecap="round" stroke-linejoin="round"><g transform="translate(12 0)"><path d="M-96 -98H56V-74H-96ZM-96 -86H56M-96 64H56V76H-96ZM-96 -74V64M-86 -74V64M-61 -74V64M-51 -74V64M-25 -74V64M-15 -74V64M10 -74V64M20 -74V64M46 -74V64M56 -74V64M-86 -12H-61M-86 -2H-61M-51 -2H-25M-51 8H-25M-15 -12H10M-15 -2H10M20 -2H46M20 8H46" mask="url(#ko-framing02)"/><g transform="translate(62 100) rotate(8)"><path d="M0 0H-112V-16H-14V-96H0Z"/><path d="M-28 -16V-8M-38 -16V-11M-48 -16V-8M-58 -16V-11M-68 -16V-8M-78 -16V-11M-88 -16V-8M-98 -16V-11M-14 -28H-6M-14 -38H-9M-14 -48H-6M-14 -58H-9M-14 -68H-6M-14 -78H-9" stroke-width="2.9"/></g></g></g></g><rect width="640" height="64" fill="url(#st-framing02)"/><rect y="268" width="640" height="92" fill="url(#sb-framing02)"/><path d="M10 26V10H26M614 10H630V26M630 334V350H614M26 350H10V334" fill="none" stroke="#6E7482" stroke-width="2"/><text x="624" y="344" text-anchor="end" font-family="'IBM Plex Mono', ui-monospace, monospace" font-size="11" letter-spacing="2" fill="#5E6472">PLACEHOLDER PHOTO</text></svg>