<svg xmlns="http://www.w3.org/2000/svg" viewBox="0 0 640 480" width="640" height="480" role="img" aria-label="Placeholder woodshop photo 01: live-edge slab dining table with trestle legs, line drawing"><defs><linearGradient id="bg-wood01" x1="0" y1="0" x2="0" y2="1"><stop offset="0" stop-color="#22252D"/><stop offset="1" stop-color="#121419"/></linearGradient><filter id="gr-wood01" x="0" y="0" width="100%" height="100%"><feTurbulence type="fractalNoise" baseFrequency=".85" numOctaves="2" seed="2732" stitchTiles="stitch"/><feColorMatrix values="0 0 0 0 1 0 0 0 0 1 0 0 0 0 1 0 0 0 0.06 0"/></filter><linearGradient id="st-wood01" x1="0" y1="0" x2="0" y2="1"><stop offset="0" stop-color="#22252D" stop-opacity="0.85"/><stop offset="1" stop-color="#22252D" stop-opacity="0"/></linearGradient><linearGradient id="sb-wood01" x1="0" y1="0" x2="0" y2="1"><stop offset="0" stop-color="#121419" stop-opacity="0"/><stop offset="1" stop-color="#121419" stop-opacity="0.9"/></linearGradient><radialGradient id="sp-wood01" cx=".5" cy=".42" r=".55"><stop offset="0" stop-color="#fff" stop-opacity=".07"/><stop offset="1" stop-color="#fff" stop-opacity="0"/></radialGradient></defs><rect width="640" height="480" fill="url(#bg-wood01)"/><path d="M40 0V480M80 0V480M120 0V480M160 0V480M200 0V480M240 0V480M280 0V480M320 0V480M360 0V480M400 0V480M440 0V480M480 0V480M520 0V480M560 0V480M600 0V480M0 40H640M0 80H640M0 120H640M0 160H640M0 200H640M0 240H640M0 280H640M0 320H640M0 360H640M0 400H640M0 440H640" fill="none" stroke="#fff" opacity="0.05"/><rect width="640" height="480" filter="url(#gr-wood01)"/><rect width="640" height="480" fill="url(#sp-wood01)"/><path d="M36 354.4H604" stroke="#6E7482" stroke-dasharray="1 6" opacity=".7"/><g transform="translate(320 246) scale(1.42)"><g fill="none" stroke="#D5D9E0" stroke-width="4.6" stroke-linecap="round" stroke-linejoin="round"><path d="M-106 -30C-84 -38 -58 -25 -30 -31S24 -39 52 -31S90 -25 106 -31V-18H-106Z"/><path d="M-88 -18V-10H-56V-18M-78 -10V66M-66 -10V66M-92 66H-52V74H-92ZM56 -18V-10H88V-18M66 -10V66M78 -10V66M52 66H92V74H52Z"/><path d="M-66 26H66M-66 34H66"/><path d="M16 -46Q40 -16 64 -46ZM34 -46Q36 -58 46 -60"/><path d="M-90 -24C-60 -27 -30 -22 0 -25S50 -27 80 -24" stroke-width="2.5" opacity=".7"/></g></g><rect width="640" height="70" fill="url(#st-wood01)"/><rect y="384" width="640" height="96" fill="url(#sb-wood01)"/><path d="M10 26V10H26M614 10H630V26M630 454V470H614M26 470H10V454" fill="none" stroke="#6E7482" stroke-width="2"/><text x="624" y="464" text-anchor="end" font-family="'IBM Plex Mono', ui-monospace, monospace" font-size="11" letter-spacing="2" fill="#5E6472">PLACEHOLDER PHOTO</text></svg>